<svg width="12" height="25" viewBox="0 0 12 25" fill="none" xmlns="http://www.w3.org/2000/svg">
<path d="M6 24.7759C4.34 24.7759 2.9252 24.1257 1.7556 22.8252C0.586 21.5248 0.0008 19.9528 0 18.1092C0 17.0425 0.21 16.0479 0.63 15.1252C1.05 14.2025 1.64 13.4194 2.4 12.7759V4.77588C2.4 3.66477 2.75 2.72032 3.45 1.94255C4.15 1.16477 5 0.775879 6 0.775879C7 0.775879 7.85 1.16477 8.55 1.94255C9.25 2.72032 9.6 3.66477 9.6 4.77588V12.7759C10.36 13.4203 10.95 14.2039 11.37 15.1265C11.79 16.0492 12 17.0434 12 18.1092C12 19.9537 11.4148 21.5261 10.2444 22.8265C9.074 24.127 7.6592 24.7768 6 24.7759ZM4.8 10.1092H7.2V4.77588C7.2 4.3981 7.0848 4.08166 6.8544 3.82655C6.624 3.57143 6.3392 3.44343 6 3.44255C5.6608 3.44166 5.376 3.56966 5.1456 3.82655C4.9152 4.08343 4.8 4.39988 4.8 4.77588V10.1092Z" fill="white"/>
</svg>
