<svg width="12" height="25" viewBox="0 0 12 25" fill="none" xmlns="http://www.w3.org/2000/svg">
<path d="M6 24.5962C4.34 24.5962 2.9252 23.946 1.7556 22.6455C0.586 21.3451 0.0008 19.7731 0 17.9295C0 16.8629 0.21 15.8682 0.63 14.9455C1.05 14.0229 1.64 13.2397 2.4 12.5962V4.59619C2.4 3.48508 2.75 2.54064 3.45 1.76286C4.15 0.98508 5 0.596191 6 0.596191C7 0.596191 7.85 0.98508 8.55 1.76286C9.25 2.54064 9.6 3.48508 9.6 4.59619V12.5962C10.36 13.2406 10.95 14.0242 11.37 14.9469C11.79 15.8695 12 16.8637 12 17.9295C12 19.774 11.4148 21.3464 10.2444 22.6469C9.074 23.9473 7.6592 24.5971 6 24.5962ZM4.8 9.92952H7.2V4.59619C7.2 4.21841 7.0848 3.90197 6.8544 3.64686C6.624 3.39175 6.3392 3.26375 6 3.26286C5.6608 3.26197 5.376 3.38997 5.1456 3.64686C4.9152 3.90375 4.8 4.22019 4.8 4.59619V9.92952Z" fill="#91CAE5"/>
</svg>
