<svg width="115" height="105" viewBox="0 0 115 105" fill="none" xmlns="http://www.w3.org/2000/svg">
<g filter="url(#filter0_d_560_2908)">
<path d="M52.6364 17.6364V0H62.3636V17.6364H52.6364ZM84.9795 29.7614L78.292 23.6989L91.9102 11.0227L98.7193 17.3057L84.9795 29.7614ZM91.5455 52.9091V44.0909H111V52.9091H91.5455ZM52.6364 97V79.3636H62.3636V97H52.6364ZM30.0205 29.5409L16.1591 17.3057L23.0898 11.133L36.8295 23.5886L30.0205 29.5409ZM91.7886 85.9773L78.292 73.3011L84.858 67.3489L98.7193 79.4739L91.7886 85.9773ZM4 52.9091V44.0909H23.4545V52.9091H4ZM23.0898 85.9773L16.2807 79.6943L29.8989 67.3489L33.425 70.325L36.9511 73.4114L23.0898 85.9773ZM57.5 74.9545C49.3939 74.9545 42.5038 72.3826 36.8295 67.2386C31.1553 62.0947 28.3182 55.8485 28.3182 48.5C28.3182 41.1515 31.1553 34.9053 36.8295 29.7614C42.5038 24.6174 49.3939 22.0455 57.5 22.0455C65.6061 22.0455 72.4962 24.6174 78.1705 29.7614C83.8447 34.9053 86.6818 41.1515 86.6818 48.5C86.6818 55.8485 83.8447 62.0947 78.1705 67.2386C72.4962 72.3826 65.6061 74.9545 57.5 74.9545Z" fill="#FAB005"/>
<path d="M53.1364 17.1364V0.5H61.8636V17.1364H53.1364ZM84.9795 29.0865L79.0311 23.694L91.9117 11.7044L97.9785 17.3024L84.9795 29.0865ZM92.0455 52.4091V44.5909H110.5V52.4091H92.0455ZM53.1364 96.5V79.8636H61.8636V96.5H53.1364ZM23.0868 11.8051L36.0776 23.5818L30.0221 28.8754L16.9127 17.304L23.0868 11.8051ZM91.7888 85.2915L79.0293 73.3076L84.8639 68.0183L97.9748 79.4869L91.7888 85.2915ZM4.5 52.4091V44.5909H22.9545V52.4091H4.5ZM23.0928 85.2997L17.0215 79.6976L29.9106 68.0131L33.0957 70.7012L33.1025 70.7071L36.1995 73.4179L23.0928 85.2997ZM57.5 74.4545C49.5102 74.4545 42.7419 71.9236 37.1654 66.8682C31.5907 61.8145 28.8182 55.7008 28.8182 48.5C28.8182 41.2992 31.5907 35.1855 37.1654 30.1318C42.7419 25.0764 49.5102 22.5455 57.5 22.5455C65.4898 22.5455 72.2581 25.0764 77.8346 30.1318C83.4093 35.1855 86.1818 41.2992 86.1818 48.5C86.1818 55.7008 83.4093 61.8145 77.8346 66.8682C72.2581 71.9236 65.4899 74.4545 57.5 74.4545Z" stroke="black"/>
</g>
<defs>
<filter id="filter0_d_560_2908" x="0" y="0" width="115" height="105" filterUnits="userSpaceOnUse" color-interpolation-filters="sRGB">
<feFlood flood-opacity="0" result="BackgroundImageFix"/>
<feColorMatrix in="SourceAlpha" type="matrix" values="0 0 0 0 0 0 0 0 0 0 0 0 0 0 0 0 0 0 127 0" result="hardAlpha"/>
<feOffset dy="4"/>
<feGaussianBlur stdDeviation="2"/>
<feComposite in2="hardAlpha" operator="out"/>
<feColorMatrix type="matrix" values="0 0 0 0 0 0 0 0 0 0 0 0 0 0 0 0 0 0 0.25 0"/>
<feBlend mode="normal" in2="BackgroundImageFix" result="effect1_dropShadow_560_2908"/>
<feBlend mode="normal" in="SourceGraphic" in2="effect1_dropShadow_560_2908" result="shape"/>
</filter>
</defs>
</svg>
