<svg width="120" height="120" viewBox="0 0 120 120" fill="none" xmlns="http://www.w3.org/2000/svg">
<path d="M71.5377 118.575C70.0585 119.364 68.5557 119.488 67.0292 118.948C65.5027 118.407 64.343 117.396 63.5502 115.912L54.6752 98.1624C53.8863 96.6833 53.764 95.1804 54.3083 93.6539C54.8527 92.1274 55.8624 90.9678 57.3377 90.1749C58.8129 89.3821 60.3177 89.2598 61.8521 89.8081C63.3865 90.3564 64.5442 91.3661 65.3252 92.8374L74.2002 110.587C74.9891 112.067 75.1133 113.571 74.5729 115.102C74.0325 116.632 73.0208 117.79 71.5377 118.575ZM107.038 118.575C105.559 119.364 104.056 119.488 102.529 118.948C101.003 118.407 99.843 117.396 99.0502 115.912L90.1752 98.1624C89.3863 96.6833 89.264 95.1804 89.8083 93.6539C90.3527 92.1274 91.3624 90.9678 92.8377 90.1749C94.3129 89.3821 95.8177 89.2598 97.3521 89.8081C98.8865 90.3564 100.044 91.3661 100.825 92.8374L109.7 110.587C110.489 112.067 110.613 113.571 110.073 115.102C109.533 116.632 108.521 117.79 107.038 118.575ZM36.0377 118.575C34.5585 119.364 33.0557 119.488 31.5292 118.948C30.0027 118.407 28.843 117.396 28.0502 115.912L19.1752 98.1624C18.3863 96.6833 18.264 95.1804 18.8083 93.6539C19.3527 92.1274 20.3624 90.9678 21.8377 90.1749C23.3129 89.3821 24.8177 89.2598 26.3521 89.8081C27.8865 90.3564 29.0442 91.3661 29.8252 92.8374L38.7002 110.587C39.4891 112.067 39.6133 113.571 39.0729 115.102C38.5325 116.632 37.5208 117.79 36.0377 118.575ZM33.3752 83.6666C24.4016 83.6666 16.7355 80.4874 10.3771 74.1289C4.01863 67.7705 0.837441 60.1025 0.833496 51.1249C0.833496 42.9402 3.5453 35.7909 8.96891 29.677C14.3925 23.5631 21.0981 19.9638 29.0856 18.8791C32.2411 13.2583 36.5564 8.84443 42.0313 5.63759C47.5061 2.43076 53.4958 0.829315 60.0002 0.833259C68.8752 0.833259 76.5925 3.66931 83.1521 9.34143C89.7117 15.0135 93.6798 22.0879 95.0564 30.5645C101.861 31.1562 107.58 33.9666 112.215 38.9958C116.849 44.0249 119.167 50.0402 119.167 57.0416C119.167 64.4374 116.579 70.7249 111.404 75.9039C106.229 81.083 99.9416 83.6705 92.5418 83.6666H33.3752Z" fill="#2CC8EF"/>
</svg>
