<svg width="115" height="115" viewBox="0 0 115 115" fill="none" xmlns="http://www.w3.org/2000/svg">
<path d="M102.222 0H12.7778C9.3889 0 6.13882 1.34623 3.74252 3.74252C1.34623 6.13882 0 9.3889 0 12.7778L0 31.9444H115V12.7778C115 9.3889 113.654 6.13882 111.257 3.74252C108.861 1.34623 105.611 0 102.222 0Z" fill="#F5F8FA"/>
<path d="M115 52.2866V29.5709C112.904 28.2593 110.483 27.56 108.011 27.552C103.778 27.552 100.053 29.5549 97.5999 32.6248C94.9587 30.1421 91.4721 28.7569 87.8472 28.7499C85.544 28.7499 83.4006 29.3409 81.4711 30.3024C79.104 25.613 74.2932 22.3611 68.6806 22.3611C66.7415 22.3611 64.8983 22.7572 63.2117 23.4536C62.5297 21.5004 61.3176 19.7754 59.7112 18.4718C58.1047 17.1682 56.1672 16.3373 54.1154 16.0721C52.0637 15.8069 49.9785 16.1178 48.0934 16.9701C46.2083 17.8224 44.5975 19.1824 43.4412 20.898C41.3836 19.7757 39.0799 19.1809 36.7361 19.1666C31.494 19.1666 26.9547 22.0001 24.4439 26.188C23.2879 23.1839 21.2496 20.6001 18.5971 18.7767C15.9446 16.9532 12.8022 15.9755 9.58333 15.9722C6.11782 15.9831 2.75145 17.1299 0 19.2369L0 44.6487C2.67694 46.674 78.2639 57.4999 78.2639 57.4999C78.2639 57.4999 112.962 53.5452 115 52.2866Z" fill="#E1E8ED"/>
<path d="M115 47.185C112.307 43.7638 108.177 41.5277 103.487 41.5277C97.1079 41.5277 91.7285 45.6134 89.6936 51.2995C89.0846 51.1841 88.4669 51.121 87.8472 51.111C85.2278 51.111 82.8479 52.0502 80.9408 53.5611C78.7746 51.9721 76.1588 51.1139 73.4722 51.111C72.3446 51.111 71.2712 51.3027 70.2299 51.5774C70.2363 51.4209 70.2778 51.2707 70.2778 51.111C70.2778 47.7221 68.9315 44.4721 66.5352 42.0758C64.139 39.6795 60.8889 38.3332 57.5 38.3332C55.6597 38.3376 53.8424 38.7425 52.1743 39.5198C50.5061 40.297 49.0272 41.428 47.84 42.8342C45.8466 41.9742 43.6988 41.5297 41.5278 41.5277C40.9528 41.5277 40.4097 41.6363 39.8507 41.697C38.1679 37.5935 35.3028 34.0831 31.6197 31.6121C27.9366 29.1412 23.6018 27.8213 19.1667 27.8203C15.303 27.8217 11.5059 28.8255 8.14634 30.7337C4.78681 32.6419 1.9799 35.3892 0 38.707L0 81.9725L103.487 77.3342C103.487 77.3342 112.307 73.0441 115 67.8595V47.185Z" fill="#CCD6DD"/>
<path d="M115 97.4274V65.237C112.986 64.3525 110.811 63.8935 108.611 63.8889C105.392 63.8922 102.25 64.8699 99.5971 66.6934C96.9446 68.5169 94.9063 71.1006 93.7503 74.1047C91.2395 69.9168 86.7002 67.0834 81.4581 67.0834C79.0208 67.0834 76.7623 67.7446 74.753 68.8147C73.5967 67.0992 71.9859 65.7391 70.1008 64.8868C68.2157 64.0346 66.1306 63.7236 64.0788 63.9888C62.027 64.2541 60.0895 65.085 58.483 66.3886C56.8766 67.6922 55.6646 69.4171 54.9826 71.3703C53.2484 70.6526 51.3905 70.2815 49.5137 70.2778C43.901 70.2778 39.0902 73.5297 36.7231 78.2192C34.7479 77.2115 32.5644 76.6798 30.347 76.6667C26.721 76.6728 23.2332 78.0581 20.5912 80.5416C18.1378 77.4717 14.4131 75.4688 10.1805 75.4688C6.0788 75.4688 2.45311 77.3567 -0.00341797 80.2636V97.4274H115Z" fill="#E1E8ED"/>
<path d="M79.8611 79.8612C77.2385 79.8612 74.8075 80.6566 72.779 82.0111C71.7311 79.0894 69.7362 76.602 67.1117 74.9448C64.4872 73.2875 61.3839 72.5556 58.2954 72.8654C55.443 73.1618 52.7522 74.3335 50.592 76.2197C48.4319 78.1059 46.9082 80.6142 46.23 83.4007C45.6454 83.3518 45.0577 83.3518 44.4731 83.4007C42.1052 83.6535 39.8927 84.7007 38.196 86.3715C36.0002 85.0835 33.452 84.5264 30.919 84.7807C29.8872 84.8987 28.8754 85.1521 27.9099 85.5346C27.9003 85.3844 27.9226 85.2375 27.9099 85.0905C27.749 83.5085 27.278 81.9737 26.5239 80.5737C25.7697 79.1737 24.7472 77.936 23.5146 76.9313C22.2821 75.9266 20.8637 75.1745 19.3404 74.718C17.8172 74.2616 16.2189 74.1096 14.6369 74.2709C12.9026 74.4534 11.2285 75.0104 9.73049 75.9033C8.23248 76.7963 6.94629 78.0039 5.96083 79.4427C4.03638 78.8345 2.00905 78.6204 0 78.8134L0 102.222C0 104.692 0.734722 106.979 1.94861 108.934C2.28403 108.924 92.6389 99.6955 92.6389 92.639C92.6389 85.5825 86.9176 79.8612 79.8611 79.8612Z" fill="#F5F8FA"/>
<path d="M102.222 115C105.611 115 108.861 113.654 111.257 111.257C113.654 108.861 115 105.611 115 102.222V77.9189C112.007 76.4899 108.733 75.7446 105.417 75.7371C100.981 75.738 96.6468 77.0579 92.9637 79.5289C89.2806 81.9998 86.4155 85.5102 84.7326 89.6137C84.1736 89.553 83.6306 89.4444 83.0556 89.4444C80.8131 89.4444 78.6824 89.914 76.7433 90.751C75.5562 89.3448 74.0772 88.2138 72.4091 87.4365C70.7409 86.6593 68.9236 86.2544 67.0833 86.25C63.6945 86.25 60.4444 87.5962 58.0481 89.9925C55.6518 92.3888 54.3056 95.6389 54.3056 99.0278C54.3056 99.1875 54.3471 99.3376 54.3535 99.4941C53.2972 99.2002 52.2074 99.0435 51.1111 99.0278C48.3128 99.0278 45.7476 99.951 43.6425 101.478C41.6847 99.9018 39.2494 99.0379 36.7361 99.0278C36.1174 99.0364 35.5006 99.0994 34.8929 99.2162C32.8581 93.5301 27.4786 89.4444 21.0961 89.4444C14.7487 89.4444 9.38847 93.4886 7.32806 99.1236C7.01181 99.098 6.71153 99.0278 6.38889 99.0278C4.05056 99.0278 1.88472 99.7018 0 100.801V102.222C0 105.611 1.34623 108.861 3.74252 111.257C6.13882 113.654 9.3889 115 12.7778 115H102.222Z" fill="#CCD6DD"/>
</svg>
