<svg width="113" height="113" viewBox="0 0 113 113" fill="none" xmlns="http://www.w3.org/2000/svg">
<g filter="url(#filter0_d_568_3115)">
<g filter="url(#filter1_dd_568_3115)">
<path d="M87.1043 87.9047C87.1043 93.9784 82.396 98.8751 76.5106 98.8751C70.6252 98.8751 65.9168 93.9784 65.9168 87.9047C65.9168 80.6067 76.5106 68.2709 76.5106 68.2709C76.5106 68.2709 87.1043 80.6067 87.1043 87.9047ZM18.8335 81.7367C18.1743 79.1942 19.681 76.5105 22.2706 75.8513L32.9585 72.9792L25.0956 65.2576C23.2122 63.3742 23.2122 60.3138 25.0956 58.3834C26.9789 56.5001 30.1335 56.5001 31.9697 58.3834L39.7856 66.1522L42.5635 55.5584C43.2227 52.9217 45.9064 51.4151 48.4489 52.1213C51.0856 52.7805 52.5922 55.4642 51.7918 58.0538L49.061 68.6476L59.6547 65.9167C60.2636 65.7245 60.9054 65.6594 61.5405 65.7255C62.1755 65.7915 62.7902 65.9874 63.3464 66.3008C63.9027 66.6142 64.3886 67.0386 64.774 67.5476C65.1595 68.0566 65.4363 68.6393 65.5872 69.2597C66.2935 71.8022 64.7868 74.4859 62.1502 75.1451L51.5564 77.923L59.3252 85.7388C61.2085 87.5751 61.2085 90.7297 59.3252 92.613C57.4418 94.4963 54.3343 94.4963 52.4981 92.613L44.7293 84.7501L41.8573 95.438C41.1981 98.0747 38.5143 99.5342 35.9718 98.8751C33.3352 98.2159 31.8756 95.5322 32.5347 92.9426L35.3127 82.3959L24.766 85.1738C22.1764 85.833 19.4927 84.3734 18.8335 81.7367ZM4.7085 51.7917C4.7085 45.5481 7.18877 39.5602 11.6037 35.1453C16.0186 30.7304 22.0065 28.2501 28.2502 28.2501C32.9585 17.1855 43.7877 9.41675 56.5002 9.41675C72.6497 9.41675 85.8802 21.9409 87.1043 37.808L89.4585 37.6667C94.4534 37.6667 99.2437 39.651 102.776 43.1829C106.308 46.7148 108.292 51.5052 108.292 56.5001C108.292 61.495 106.308 66.2853 102.776 69.8173C99.2437 73.3492 94.4534 75.3334 89.4585 75.3334C88.2098 75.3334 87.0122 74.8374 86.1292 73.9544C85.2462 73.0714 84.7502 71.8738 84.7502 70.6251C84.7502 69.3764 85.2462 68.1788 86.1292 67.2958C87.0122 66.4128 88.2098 65.9167 89.4585 65.9167C91.956 65.9167 94.3511 64.9246 96.1171 63.1587C97.8831 61.3927 98.8752 58.9975 98.8752 56.5001C98.8752 54.0026 97.8831 51.6075 96.1171 49.8415C94.3511 48.0755 91.956 47.0834 89.4585 47.0834H80.0418V42.3751C80.0418 36.1314 77.5616 30.1435 73.1466 25.7286C68.7317 21.3137 62.7438 18.8334 56.5002 18.8334C44.7293 18.8334 35.0772 27.4026 33.241 38.5613C31.6872 37.9963 29.9922 37.6667 28.2502 37.6667C24.504 37.6667 20.9112 39.1549 18.2623 41.8039C15.6133 44.4528 14.1252 48.0456 14.1252 51.7917C14.1252 55.7938 15.7731 59.3722 18.4097 61.9617C20.1047 63.798 20.0577 66.6701 18.2685 68.4592C17.8329 68.8957 17.3155 69.242 16.7459 69.4783C16.1764 69.7146 15.5658 69.8362 14.9491 69.8362C14.3325 69.8362 13.7219 69.7146 13.1523 69.4783C12.5827 69.242 12.0653 68.8957 11.6297 68.4592C9.43649 66.2728 7.69618 63.6752 6.50851 60.8151C5.32084 57.955 4.70915 54.8886 4.7085 51.7917Z" fill="#6D97CA"/>
</g>
</g>
<defs>
<filter id="filter0_d_568_3115" x="-4" y="0" width="121" height="121" filterUnits="userSpaceOnUse" color-interpolation-filters="sRGB">
<feFlood flood-opacity="0" result="BackgroundImageFix"/>
<feColorMatrix in="SourceAlpha" type="matrix" values="0 0 0 0 0 0 0 0 0 0 0 0 0 0 0 0 0 0 127 0" result="hardAlpha"/>
<feOffset dy="4"/>
<feGaussianBlur stdDeviation="2"/>
<feComposite in2="hardAlpha" operator="out"/>
<feColorMatrix type="matrix" values="0 0 0 0 0 0 0 0 0 0 0 0 0 0 0 0 0 0 0.25 0"/>
<feBlend mode="normal" in2="BackgroundImageFix" result="effect1_dropShadow_568_3115"/>
<feBlend mode="normal" in="SourceGraphic" in2="effect1_dropShadow_568_3115" result="shape"/>
</filter>
<filter id="filter1_dd_568_3115" x="0.708496" y="9.41675" width="111.583" height="97.616" filterUnits="userSpaceOnUse" color-interpolation-filters="sRGB">
<feFlood flood-opacity="0" result="BackgroundImageFix"/>
<feColorMatrix in="SourceAlpha" type="matrix" values="0 0 0 0 0 0 0 0 0 0 0 0 0 0 0 0 0 0 127 0" result="hardAlpha"/>
<feOffset dy="4"/>
<feGaussianBlur stdDeviation="2"/>
<feComposite in2="hardAlpha" operator="out"/>
<feColorMatrix type="matrix" values="0 0 0 0 0 0 0 0 0 0 0 0 0 0 0 0 0 0 0.25 0"/>
<feBlend mode="normal" in2="BackgroundImageFix" result="effect1_dropShadow_568_3115"/>
<feColorMatrix in="SourceAlpha" type="matrix" values="0 0 0 0 0 0 0 0 0 0 0 0 0 0 0 0 0 0 127 0" result="hardAlpha"/>
<feOffset dy="4"/>
<feGaussianBlur stdDeviation="2"/>
<feComposite in2="hardAlpha" operator="out"/>
<feColorMatrix type="matrix" values="0 0 0 0 0 0 0 0 0 0 0 0 0 0 0 0 0 0 0.25 0"/>
<feBlend mode="normal" in2="effect1_dropShadow_568_3115" result="effect2_dropShadow_568_3115"/>
<feBlend mode="normal" in="SourceGraphic" in2="effect2_dropShadow_568_3115" result="shape"/>
</filter>
</defs>
</svg>
