<svg width="151" height="116" viewBox="0 0 151 116" fill="none" xmlns="http://www.w3.org/2000/svg">
<g clip-path="url(#clip0_560_2910)">
<path fill-rule="evenodd" clip-rule="evenodd" d="M54.4154 29.2028C56.0859 29.0687 57.7805 29 59.4953 29C82.4316 29 101.765 41.2879 107.687 58.0503C108.161 58.0266 108.637 58.0112 109.117 58.0043C108.922 58.0017 108.727 58.0004 108.531 58.0004L108.373 58.0007L108.373 58H115.609H115.893V57.9982C124.884 57.8816 132.125 52.2467 132.125 45.3125C132.125 38.3054 124.731 32.625 115.609 32.625C112.547 32.625 109.679 33.2654 107.22 34.3813C107.213 32.3559 106.812 30.4015 106.074 28.5608C102.398 20.3778 92.2831 14.5 80.3816 14.5C68.171 14.5 57.8416 20.687 54.4154 29.2028ZM128.24 62.7338C136.306 67.3375 141.563 74.8673 141.563 83.3749C141.563 97.3891 127.301 108.75 109.708 108.75C109.314 108.75 108.922 108.744 108.531 108.733V108.75H60.2449V108.746C59.9955 108.749 59.7456 108.75 59.4953 108.75C31.8492 108.75 9.4375 90.8974 9.4375 68.875C9.4375 51.0919 24.0512 36.0278 44.2341 30.8871C47.0313 17.4872 62.1502 7.25 80.3816 7.25C96.0236 7.25 109.374 14.7858 114.618 25.3893C114.947 25.3798 115.277 25.375 115.609 25.375C129.943 25.375 141.562 34.3013 141.562 45.3125C141.562 52.8014 136.188 59.3259 128.24 62.7338ZM108.531 101.5H60.2449H59.7018V101.5L59.4953 101.5C37.381 101.5 18.875 87.1433 18.875 68.875C18.875 50.6067 37.381 36.25 59.4953 36.25C78.2551 36.25 94.4182 46.5814 98.8902 60.8679L98.9044 60.8634C99.536 62.8457 99.9387 64.9008 100.089 67.0099C103.029 65.8777 106.3 65.25 109.708 65.25C121.769 65.25 132.125 73.1148 132.125 83.3749C132.125 93.5632 121.913 101.39 109.961 101.499V101.5H108.531Z" fill="#6B7280"/>
</g>
<defs>
<clipPath id="clip0_560_2910">
<rect width="151" height="116" fill="white"/>
</clipPath>
</defs>
</svg>
