<svg width="164" height="164" viewBox="0 0 164 164" fill="none" xmlns="http://www.w3.org/2000/svg">
<path d="M27.3333 68.3334C25.521 68.3334 23.7829 67.6135 22.5014 66.332C21.2199 65.0505 20.5 63.3124 20.5 61.5001C20.5 59.6878 21.2199 57.9497 22.5014 56.6682C23.7829 55.3867 25.521 54.6667 27.3333 54.6667H82C85.6246 54.6667 89.1008 53.2269 91.6638 50.6639C94.2268 48.1009 95.6667 44.6247 95.6667 41.0001C95.6667 37.3755 94.2268 33.8993 91.6638 31.3363C89.1008 28.7733 85.6246 27.3334 82 27.3334C78.2417 27.3334 74.825 28.8367 72.365 31.3651C71.7431 32.0287 70.9917 32.5578 70.1572 32.9194C69.3227 33.2811 68.4228 33.4677 67.5133 33.4677C66.6038 33.4677 65.704 33.2811 64.8695 32.9194C64.035 32.5578 63.2836 32.0287 62.6617 31.3651C59.9967 28.7001 59.9967 24.3267 62.6617 21.6617C67.65 16.7417 74.4833 13.6667 82 13.6667C89.2492 13.6667 96.2016 16.5465 101.328 21.6725C106.454 26.7985 109.333 33.7508 109.333 41.0001C109.333 48.2493 106.454 55.2017 101.328 60.3277C96.2016 65.4537 89.2492 68.3334 82 68.3334H27.3333ZM129.833 82.0001C131.646 82.0001 133.384 81.2801 134.665 79.9986C135.947 78.7171 136.667 76.9791 136.667 75.1667C136.667 73.3544 135.947 71.6164 134.665 70.3349C133.384 69.0534 131.646 68.3334 129.833 68.3334C127.92 68.3334 126.212 69.0851 124.982 70.3151C124.349 70.9486 123.599 71.4511 122.772 71.794C121.945 72.1369 121.059 72.3134 120.164 72.3134C119.269 72.3134 118.383 72.1369 117.556 71.794C116.73 71.4511 115.979 70.9486 115.347 70.3151C112.75 67.6501 112.75 63.3451 115.347 60.6801C119.037 56.9901 124.162 54.6667 129.833 54.6667C135.27 54.6667 140.485 56.8266 144.329 60.6711C148.174 64.5156 150.333 69.7298 150.333 75.1667C150.333 80.6037 148.174 85.8179 144.329 89.6624C140.485 93.5069 135.27 95.6667 129.833 95.6667H34.1667C32.3544 95.6667 30.6163 94.9468 29.3348 93.6653C28.0533 92.3838 27.3333 90.6457 27.3333 88.8334C27.3333 87.0211 28.0533 85.283 29.3348 84.0015C30.6163 82.72 32.3544 82.0001 34.1667 82.0001H129.833ZM123 123H27.3333C25.521 123 23.7829 122.28 22.5014 120.999C21.2199 119.717 20.5 117.979 20.5 116.167C20.5 114.354 21.2199 112.616 22.5014 111.335C23.7829 110.053 25.521 109.333 27.3333 109.333H123C128.437 109.333 133.651 111.493 137.496 115.338C141.34 119.182 143.5 124.396 143.5 129.833C143.5 135.27 141.34 140.485 137.496 144.329C133.651 148.174 128.437 150.333 123 150.333C117.328 150.333 112.203 148.01 108.513 144.32C105.917 141.655 105.917 137.35 108.513 134.685C109.146 134.052 109.896 133.549 110.723 133.206C111.55 132.863 112.436 132.687 113.331 132.687C114.226 132.687 115.112 132.863 115.939 133.206C116.765 133.549 117.516 134.052 118.148 134.685C119.378 135.915 121.087 136.667 123 136.667C124.812 136.667 126.55 135.947 127.832 134.665C129.113 133.384 129.833 131.646 129.833 129.833C129.833 128.021 129.113 126.283 127.832 125.002C126.55 123.72 124.812 123 123 123Z" fill="#5EAFCF"/>
</svg>
