<svg width="138" height="129" viewBox="0 0 138 129" fill="none" xmlns="http://www.w3.org/2000/svg">
<path d="M62.4286 125.477V108.433L51.3984 113.786L46 111.007V105.017L62.4286 96.9919V85.7904L49.2857 92.3774V80.5094L36.1429 86.1371V102.235L30.7116 105.541L26.2857 102.555V91.7727L7.97114 100.163L0 97.4783V90.6816L18.6793 82.1623L6.57143 77.2656V71.0306L13.547 68.0018L30.6787 76.2471L42.5467 70.6463L42.2773 70.4716L30.2351 64.7661L41.9586 58.7783L30.2056 53.1803L13.0771 61.3825L6.57143 58.7783V52.5782L18.2094 47.2624L0 39.0574V32.2607L7.62614 29.2669L26.2857 37.8588V26.9046L31.165 23.8757L37.5491 27.047L37.3651 43.4542L49.4336 49.1571L49.542 37.5712L62.4286 43.2123V32.0135L46 23.9832V18.0331L51.3984 15.2112L62.4286 20.5648V3.55825L68.9803 0L75.5714 3.55825V20.5648L88.4054 15.1064L95.2857 18.3825V23.736L75.5714 32.0135V43.2123L88.7143 37.1198V49.3049L101.857 43.7041V26.1709L106.638 23.8435L111.714 26.1682V37.367L130.909 29.0895L138 32.3629V38.7027L119.945 47.2221L131.429 52.4734V58.5311L125.416 61.2078L107.913 52.7207L95.8246 59.0256L107.486 65.0133L95.4632 70.7162L107.857 76.0697L125.564 68.0448L131.429 71.3128V77.0909L120.52 82.1623L138 90.6816V97.3735L129.713 100.16L111.714 92.1302V102.759L106.72 105.578L101.857 102.759V86.6289L88.7143 80.6814V91.8829L75.5714 85.7877V96.9892L92 105.014V111.354L86.5884 113.783L75.5714 108.435V125.479L68.9803 129L62.4286 125.477ZM57.6117 64.7472L63.8086 72.5625H75.3546L80.6544 64.7472L75.0556 56.4375H63.5096L57.6117 64.7472Z" fill="#3E90AA"/>
</svg>
