<svg width="12" height="23" viewBox="0 0 12 23" fill="none" xmlns="http://www.w3.org/2000/svg">
<path d="M6 23C4.34 23 2.9252 22.3769 1.7556 21.1306C0.586 19.8844 0.0008 18.3779 0 16.6111C0 15.5889 0.21 14.6357 0.63 13.7514C1.05 12.8672 1.64 12.1167 2.4 11.5V3.83333C2.4 2.76852 2.75 1.86343 3.45 1.11806C4.15 0.372685 5 0 6 0C7 0 7.85 0.372685 8.55 1.11806C9.25 1.86343 9.6 2.76852 9.6 3.83333V11.5C10.36 12.1176 10.95 12.8685 11.37 13.7527C11.79 14.6369 12 15.5897 12 16.6111C12 18.3787 11.4148 19.8856 10.2444 21.1319C9.074 22.3781 7.6592 23.0008 6 23ZM4.8 8.94444H7.2V3.83333C7.2 3.4713 7.0848 3.16804 6.8544 2.92356C6.624 2.67907 6.3392 2.55641 6 2.55556C5.6608 2.5547 5.376 2.67737 5.1456 2.92356C4.9152 3.16974 4.8 3.473 4.8 3.83333V8.94444Z" fill="#F4899F" fill-opacity="0.67"/>
</svg>
