<svg width="164" height="164" viewBox="0 0 164 164" fill="none" xmlns="http://www.w3.org/2000/svg">
<g clip-path="url(#clip0_560_3074)">
<g clip-path="url(#clip1_560_3074)">
<path d="M19.3276 76.2985C19.3276 79.051 20.421 81.6907 22.3673 83.637C24.3136 85.5832 26.9533 86.6766 29.7058 86.6766H71.2823V86.6446L72.019 86.6766C74.7701 86.6425 77.4113 85.5922 79.4345 83.7278C81.4577 81.8634 82.72 79.3167 82.9784 76.5776C83.2368 73.8385 82.4731 71.1006 80.8342 68.8907C79.1954 66.6808 76.7972 65.1551 74.1011 64.6071C74.4126 62.6606 74.1633 60.6657 73.3824 58.8557C72.6015 57.0457 71.3213 55.4956 69.6915 54.3867C68.0617 53.2778 66.1499 52.656 64.1796 52.594C62.2093 52.532 60.2621 53.0325 58.5659 54.0368C56.623 50.8696 53.6113 48.5019 50.075 47.3614C46.5388 46.2209 42.7112 46.3828 39.284 47.8179C35.8567 49.253 33.0557 51.8667 31.3873 55.1866C29.7188 58.5066 29.2928 62.3138 30.1862 65.9204H29.7058C26.9589 65.9204 24.324 67.0094 22.3786 68.9487C20.4333 70.8881 19.3361 73.5196 19.3276 76.2665V76.2985Z" fill="url(#paint0_linear_560_3074)" stroke="#848B98" stroke-width="0.03125" stroke-miterlimit="10"/>
</g>
<path d="M109.495 80.7187L108.695 80.7508C110.232 74.5285 109.494 67.9619 106.615 62.2356C103.736 56.5093 98.9056 52.0005 92.9948 49.5225C87.084 47.0445 80.4822 46.7606 74.3804 48.7219C68.2787 50.6833 63.0788 54.7608 59.7189 60.2187C56.999 58.603 53.9002 57.7354 50.7367 57.7039C47.5732 57.6723 44.4577 58.478 41.7061 60.0392C38.9546 61.6004 36.6648 63.8615 35.0692 66.5933C33.4735 69.325 32.6287 72.4301 32.6205 75.5937C32.6289 76.56 32.7146 77.524 32.8767 78.4766C28.155 79.3492 23.931 81.9578 21.0362 85.7888C18.1414 89.6197 16.7855 94.3955 17.2355 99.1761C17.6854 103.957 19.9086 108.396 23.4673 111.619C27.0261 114.843 31.6626 116.617 36.4642 116.594L37.7455 116.53V116.594H109.495C114.253 116.594 118.815 114.704 122.179 111.34C125.543 107.976 127.433 103.414 127.433 98.6562C127.433 93.8989 125.543 89.3365 122.179 85.9725C118.815 82.6086 114.253 80.7187 109.495 80.7187Z" fill="url(#paint1_linear_560_3074)" stroke="#5B6472" stroke-width="0.1875" stroke-miterlimit="10"/>
</g>
<g clip-path="url(#clip2_560_3074)">
<path d="M76.8848 93.8516L66.6348 124.602H76.8848L71.7598 150.227L97.3848 114.352H82.0098L92.2598 93.8516H76.8848Z" fill="url(#paint2_linear_560_3074)" stroke="#F6A823" stroke-width="0.125" stroke-miterlimit="10"/>
</g>
<defs>
<linearGradient id="paint0_linear_560_3074" x1="36.0479" y1="49.5204" x2="61.8972" y2="94.268" gradientUnits="userSpaceOnUse">
<stop stop-color="#9CA3AF"/>
<stop offset="0.5" stop-color="#9CA3AF"/>
<stop offset="1" stop-color="#6B7280"/>
</linearGradient>
<linearGradient id="paint1_linear_560_3074" x1="48.1556" y1="56.2789" x2="90.7892" y2="130.175" gradientUnits="userSpaceOnUse">
<stop stop-color="#6B7280"/>
<stop offset="0.5" stop-color="#6B7280"/>
<stop offset="1" stop-color="#4B5563"/>
</linearGradient>
<linearGradient id="paint2_linear_560_3074" x1="68.5246" y1="98.6883" x2="91.6512" y2="138.727" gradientUnits="userSpaceOnUse">
<stop stop-color="#F7B23B"/>
<stop offset="0.5" stop-color="#F7B23B"/>
<stop offset="1" stop-color="#F59E0B"/>
</linearGradient>
<clipPath id="clip0_560_3074">
<rect width="127.484" height="71.1094" fill="white" transform="translate(22.0503 46.4453)"/>
</clipPath>
<clipPath id="clip1_560_3074">
<rect width="64.1586" height="40.3914" fill="white" transform="translate(19.1675 46.4453)"/>
</clipPath>
<clipPath id="clip2_560_3074">
<rect width="32.8961" height="59.8344" fill="white" transform="translate(65.7378 93.2109)"/>
</clipPath>
</defs>
</svg>
