<svg width="137" height="137" viewBox="0 0 137 137" fill="none" xmlns="http://www.w3.org/2000/svg">
<path d="M112.447 19.5546C118.291 24.264 120.86 30.9642 119.136 37.0221C118.12 40.6291 116.311 43.5939 114.106 46.0877C114.834 49.0846 114.641 53.9866 111.58 59.2097C109.279 63.1271 106.732 64.9252 103.874 66.4557C104.152 68.5107 104.034 70.8761 103.51 72.9632C103.36 73.5198 103.103 74.2369 102.632 75.0503C104.933 76.9448 108.134 80.3163 107.524 84.7153C107.309 86.2672 106.603 87.6158 105.65 88.761C106.721 90.9659 107.374 94.0484 106.186 97.4948C106.121 97.666 106.036 97.8801 106.004 97.9764C105.843 98.3832 104.623 101.369 102.022 103.949C101.797 105.362 99.2714 113.721 94.6477 119.169C83.784 131.97 71.9357 133.04 70.5121 133.254C61.1469 134.688 62.4848 126.029 70.6406 116.397C75.3285 111.045 75.7353 102.418 74.7934 98.3082C70.0947 97.8587 63.919 96.2425 61.3503 94.6692C57.7326 92.4429 55.3672 90.9017 53.4835 88.4293C53.3978 88.3115 53.3336 88.1938 53.2587 88.076C49.1487 87.3589 45.895 86.2565 44.8139 85.8712C41.7743 84.7581 38.3278 81.7719 37.1398 79.2032C35.4059 75.4249 35.2025 74.6115 34.6781 72.107C28.5773 69.1743 24.66 65.1392 22.9582 61.9283C20.9032 58.0645 20.2182 53.0019 19.9934 50.5402C18.5913 49.3093 17.2855 47.95 16.2259 46.4516C12.3621 40.9502 12.8009 36.2301 13.4003 33.8968C14.6953 28.9092 18.1203 24.8955 23.5575 21.9949C30.7928 18.1311 38.9486 16.4721 43.84 16.6755C49.4484 12.2765 57.754 11.0457 63.6621 10.1787L63.9404 10.1466C72.9203 8.8194 84.6938 9.5151 91.6936 10.8851C101.059 12.7153 107.063 15.2306 112.447 19.5546Z" fill="#E3EBEE"/>
<path d="M51.3856 2.1406C54.3075 2.41889 58.1179 3.63904 57.572 5.57631C57.0796 7.33162 52.4666 7.03193 51.0003 6.95701C43.1442 6.53959 36.5618 9.25818 31.8096 12.4691C29.4014 14.2137 26.7898 15.5516 25.5268 14.3208C24.2425 12.9722 27.0895 9.75053 28.9411 8.18787C34.5603 3.5106 42.0311 1.24154 51.3856 2.1406ZM10.7244 74.376C10.0287 73.0702 8.21988 68.4679 9.85746 67.4618C11.4522 66.4771 13.6892 70.3409 14.3849 71.636C17.9062 78.1756 24.4244 82.1143 29.8188 84.0623C32.6444 84.9828 36.0266 86.2993 35.6948 87.9797C35.2239 90.0025 30.5038 89.2212 28.1491 88.6433C21.0529 86.8558 15.1341 82.6602 10.7244 74.376ZM120.089 75.7567C119.04 76.7842 115.208 79.9095 114.01 78.5502C112.8 77.1909 115.39 74.3011 116.407 73.2308C120.988 68.4036 122.454 63.2447 122.882 57.5186C123.011 54.5538 123.953 51.7175 125.333 51.7175C127.292 51.7068 127.731 54.9926 127.806 57.4115C127.988 64.7218 125.74 70.2232 120.089 75.7567ZM114.106 46.0876C107.053 53.5263 97.8478 57.8076 89.5315 59.7448C77.9828 62.4206 69.0779 63.1377 62.8486 63.1377C61.6927 63.1377 58.8992 63.1377 58.9741 62.046C59.1025 60.9436 62.2064 60.676 63.1911 60.5047C72.931 58.8351 90.6768 57.3152 105.757 45.0708C118.066 35.0848 117.381 25.1844 113.624 20.5714C116.129 22.8083 119.661 27.3251 119.661 33.5115C119.65 38.0924 117.435 42.2345 114.106 46.0876ZM34.678 72.1069C37.5036 73.5412 47.982 77.1909 58.15 77.9508C65.6743 78.5181 73.8728 77.5013 78.7321 76.5915C82.6066 75.8637 84.9827 75.4356 84.8114 74.4509C84.4582 73.1986 80.4339 73.5733 77.3086 73.584C66.0489 73.6268 56.1806 72.9097 45.2848 69.7094C39.2589 67.9434 24.6064 62.4955 20.3786 53.43C21.8021 65.6208 30.1613 69.8807 34.678 72.1069ZM102.632 75.0503C101.883 75.9279 97.0023 80.3162 88.5682 83.0241C81.8467 85.1861 73.2842 86.1708 69.0457 86.1173C68.3821 86.1066 65.2782 86.1494 65.3853 85.2076C65.5672 84.2657 67.4296 84.2443 69.1314 84.0516C74.6221 83.4308 79.8345 82.3819 87.4551 79.3958C94.8189 76.5166 103.606 70.7262 103.863 66.4557C104.302 69.4633 103.809 73.2843 102.632 75.0503ZM72.0426 98.1797C86.3099 99.2072 95.7072 93.8343 96.3601 93.3633C97.0772 92.8496 99.1429 91.608 98.4793 90.9979C97.987 90.5698 96.1246 91.3618 95.247 91.6936C94.166 92.1004 83.7197 94.9474 75.2857 94.5942C67.1192 94.2517 58.7386 91.8114 53.2479 88.076C55.5277 91.6294 62.4954 95.5789 65.5137 96.692C67.5152 97.4198 69.5702 97.9229 72.0426 98.1797ZM106.785 94.5942C105.394 97.9657 100.577 101.091 94.3907 104.323C91.03 106.079 85.0576 108.123 80.5088 108.166C79.7917 108.166 78.1862 108.155 78.2718 109.001C78.336 109.557 79.7275 109.846 80.284 109.9C84.6295 110.317 90.452 109.653 95.0436 107.866C98.5329 106.507 102.011 103.949 102.011 103.949C102.011 103.949 106.357 99.9029 106.785 94.5942Z" fill="#AFC5CC"/>
<path d="M78.2502 22.2412C72.7488 21.8773 59.2736 22.7763 59.2522 28.3313C59.2415 32.7624 71.3253 32.7624 71.4002 31.6385C71.518 29.9046 67.3866 30.5147 67.1939 28.7273C67.0012 27.261 72.5241 26.4368 77.1157 27.4108C81.6431 28.3634 86.3846 32.4413 84.6935 35.4381C82.7562 38.8631 73.8941 44.1719 56.2767 41.8493C43.8611 40.2117 30.7391 29.1661 43.829 16.6756C43.829 16.6756 42.7052 16.5685 40.6823 16.9753C35.1594 18.0884 23.6643 24.1678 27.3141 33.0728C30.9638 41.9778 46.3656 48.1106 62.902 48.2284C75.9491 48.3247 98.5434 43.2407 98.5434 33.7256C98.5541 27.3252 91.7041 23.1189 78.2502 22.2412Z" fill="#AFC5CC"/>
<mask id="mask0_560_3104" style="mask-type:luminance" maskUnits="userSpaceOnUse" x="13" y="9" width="107" height="125">
<path d="M112.447 19.5546C118.291 24.264 120.86 30.9642 119.136 37.0221C118.12 40.6291 116.311 43.5939 114.106 46.0877C114.834 49.0846 114.641 53.9866 111.58 59.2097C109.279 63.1271 106.732 64.9252 103.874 66.4557C104.152 68.5107 104.034 70.8761 103.51 72.9632C103.36 73.5198 103.103 74.2369 102.632 75.0503C104.933 76.9448 108.134 80.3163 107.524 84.7153C107.309 86.2672 106.603 87.6158 105.65 88.761C106.721 90.9659 107.374 94.0484 106.186 97.4948C106.121 97.666 106.036 97.8801 106.004 97.9764C105.843 98.3832 104.623 101.369 102.022 103.949C101.797 105.362 99.2714 113.721 94.6477 119.169C83.784 131.97 71.9357 133.04 70.5121 133.254C61.1469 134.688 62.4848 126.029 70.6406 116.397C75.3285 111.045 75.7353 102.418 74.7934 98.3082C70.0947 97.8587 63.919 96.2425 61.3503 94.6692C57.7326 92.4429 55.3672 90.9017 53.4835 88.4293C53.3978 88.3115 53.3336 88.1938 53.2587 88.076C49.1487 87.3589 45.895 86.2565 44.8139 85.8712C41.7743 84.7581 38.3278 81.7719 37.1398 79.2032C35.4059 75.4249 35.2025 74.6115 34.6781 72.107C28.5773 69.1743 24.66 65.1392 22.9582 61.9283C20.9032 58.0645 20.2182 53.0019 19.9934 50.5402C18.5913 49.3093 17.2855 47.95 16.2259 46.4516C12.3621 40.9502 12.8009 36.2301 13.4003 33.8968C14.6953 28.9092 18.1203 24.8955 23.5575 21.9949C30.7928 18.1311 38.9486 16.4721 43.84 16.6755C49.4484 12.2765 57.754 11.0457 63.6621 10.1787L63.9404 10.1466C72.9203 8.8194 84.6938 9.5151 91.6936 10.8851C101.059 12.7153 107.063 15.2306 112.447 19.5546Z" fill="white"/>
</mask>
<g mask="url(#mask0_560_3104)">
<path d="M99.4105 109.172C93.2669 114.77 90.3128 120.207 83.5806 124.477C78.6036 127.635 68.3714 133.029 64.0045 129.765C62.8165 128.876 62.9663 136.957 72.5135 136.197C75.5318 135.962 78.7641 132.28 81.4827 130.942C85.8496 128.801 90.2593 126.629 93.9091 123.407C97.5588 120.185 101.658 117.499 101.904 112.65C103.082 108.754 100.566 108.176 99.4105 109.172Z" fill="#AFC5CC"/>
</g>
</svg>
